<svg xmlns="http://www.w3.org/2000/svg" viewBox="0 0 800 500" width="100%" height="100%">
  <rect width="800" height="500" fill="#09090b" rx="16"/>
  
  <g stroke="#18181b" stroke-width="1">
    <line x1="100" y1="0" x2="100" y2="500" />
    <line x1="300" y1="0" x2="300" y2="500" />
    <line x1="500" y1="0" x2="500" y2="500" />
    <line x1="700" y1="0" x2="700" y2="500" />
    <line x1="0" y1="150" x2="800" y2="150" />
    <line x1="0" y1="350" x2="800" y2="350" />
  </g>

  <g transform="translate(120, 150)">
    <rect width="220" height="180" rx="12" fill="#18181b" stroke="#27272a" stroke-width="2"/>
    <circle cx="20" cy="20" r="5" fill="#27272a"/>
    <circle cx="36" cy="20" r="5" fill="#27272a"/>
    <circle cx="52" cy="20" r="5" fill="#27272a"/>
    <rect x="20" y="50" width="180" height="30" rx="6" fill="#27272a" opacity="0.4"/>
    <rect x="20" y="95" width="80" height="60" rx="6" fill="#27272a" opacity="0.6"/>
    <rect x="120" y="95" width="80" height="60" rx="6" fill="#27272a" opacity="0.2"/>
  </g>

  <g transform="translate(520, 110)">
    <path d="M10 30 L100 10 L190 30 L100 50 Z" fill="#27272a" stroke="#71717a" stroke-width="2"/>
    <path d="M10 30 V70 Q100 95 190 70 V30 Q100 50 10 30" fill="#18181b" stroke="#71717a" stroke-width="2"/>
    <text x="75" y="60" fill="#a1a1aa" font-family="sans-serif" font-size="12" font-weight="bold">AWS S3</text>
  </g>

  <g transform="translate(520, 260)">
    <path d="M10 30 L100 10 L190 30 L100 50 Z" fill="#27272a" stroke="#fafafa" stroke-width="2"/>
    <path d="M10 30 V70 Q100 95 190 70 V30 Q100 50 10 30" fill="#18181b" stroke="#fafafa" stroke-width="2"/>
    <text x="82" y="60" fill="#fafafa" font-family="sans-serif" font-size="12" font-weight="bold">OCI</text>
  </g>

  <path d="M290 265 C 380 265, 430 160, 520 160" fill="none" stroke="#27272a" stroke-width="4" stroke-dasharray="8 6"/>
  <path d="M290 265 C 380 265, 430 310, 520 310" fill="none" stroke="#fafafa" stroke-width="3" stroke-dasharray="8 6" opacity="0.8"/>

  <g transform="translate(360, 245)">
    <rect width="90" height="45" rx="8" fill="#fafafa" shadow="lg"/>
    <rect x="12" y="12" width="16" height="20" rx="2" fill="#09090b"/>
    <line x1="38" y1="18" x2="75" y2="18" stroke="#09090b" stroke-width="3" stroke-linecap="round"/>
    <line x1="38" y1="28" x2="60" y2="28" stroke="#71717a" stroke-width="3" stroke-linecap="round"/>
  </g>
</svg>
